<?xml version="1.0" encoding="UTF-8"?>
<svg id="Ebene_2" data-name="Ebene 2" xmlns="http://www.w3.org/2000/svg" viewBox="0 0 680.31 680.31">
  <defs>
    <style>
      .cls-1, .cls-2 {
        fill: #fff;
      }

      .cls-2 {
        fill-rule: evenodd;
      }

      .cls-3 {
        fill: #144390;
      }
    </style>
  </defs>
  <polygon class="cls-1" points="0 0 680.31 0 680.31 680.32 0 680.32 0 0 0 0 0 0"/>
  <polygon class="cls-3" points="11.42 11.42 669.37 11.42 669.37 669.42 11.42 669.42 11.42 11.42 11.42 11.42 11.42 11.42"/>
  <path class="cls-2" d="M376.85,424.71c-11.09,9.26-24,16.27-43.3,16.27-31.3,0-52.61-16.27-53.42-41.76-.53-16.7,10.51-34.42,38.02-52.61l58.7,78.05h0v.05ZM328.52,280.76c-17.81-22.9-21.7-29.95-21.7-42.82s10.61-23.18,25.54-23.18,25.15,8.88,25.15,22.7-7.82,28.03-28.99,43.3h0ZM417.94,324.68c.48,7.63,1.01,14.59,1.1,16.99.77,20.02-3.07,44.69-7.54,48.72l-53.52-72.63c36.14-30.05,47.86-51.31,47.86-79.92,0-39.12-30.34-67.68-73.25-67.68-46.27,0-78.91,28.08-78.91,66.24,0,22.42,5.71,34.8,33.7,70.56-43.44,25.06-66.05,59.9-63.6,93.79,4.08,56.64,47.18,88.47,109.83,88.8,31.97.19,51.79-6.58,74.35-24.62l13.82,18.58h61.2l-39.55-52.51c18.77-23.86,24.91-48.58,24.91-87.7,0-2.4-.62-12-.62-18.72h-49.73l-.05.1Z"/>
  <polygon class="cls-1" points="185.72 483.61 185.72 173.91 74.26 173.91 74.26 223.54 123.79 223.54 123.79 483.61 185.72 483.61 185.72 483.61 185.72 483.61"/>
  <polygon class="cls-1" points="581.87 483.61 581.87 173.91 470.46 173.91 470.46 223.54 519.99 223.54 519.99 483.61 581.87 483.61 581.87 483.61 581.87 483.61"/>
</svg>