<?xml version="1.0" encoding="UTF-8"?>
<svg id="Ebene_2" data-name="Ebene 2" xmlns="http://www.w3.org/2000/svg" viewBox="0 0 509.78 680.31">
  <defs>
    <style>
      .cls-1 {
        fill: #fff;
      }
    </style>
  </defs>
  <path id="path2" class="cls-1" d="M432.74,0H76.55C34.27,0,0,34.22,0,76.41v356.52C0,475.13,34.27,509.35,76.55,509.35h356.19c42.29,0,76.56-34.22,76.56-76.41V76.41c0-42.19-34.27-76.41-76.56-76.41Z"/>
  <path id="path4" d="M352.68,322.16c-8.54-2.35-17.14,1.92-20.25,8.11l-44.11,87.84c-2.16,4.66-7.58,6.62-12.29,4.51-2.59-1.2-4.56-3.65-5.23-6.24l-20.69-108.38c-2.16-11.47-13.06-17.33-19.05-18.86l-106.84-28.8c-2.83-.86-5.23-3.17-6.19-6.14-1.58-4.9,1.1-10.13,6-11.66l93.55-34.41c6.91-2.5,11.66-10.8,10.27-18.86l-17.62-95.8c-.86-4.56,1.78-9.12,6.29-10.56,3.6-1.15,7.34,0,9.7,2.54l72.91,77.85c3.55,3.74,13.34,9.94,22.8,6.53l90.48-33.12c-61.34-75.36-173.08-96.14-259.95-44.97-93.55,55.1-122.92,172.69-65.56,262.59,57.31,89.95,179.61,118.17,273.11,63.07,31.58-18.62,55.82-44.4,71.9-73.77l-79.15-21.41h0l-.05-.05Z"/>
  <path id="path6" class="cls-1" d="M433.22,527.78H76.51C34.32,527.78.1,561.91.1,604.05s34.22,76.27,76.46,76.27h356.72c42.24,0,76.46-34.13,76.46-76.27s-34.22-76.27-76.46-76.27h-.05Z"/>
  <path id="path8" d="M421.56,622.67c0,3.12,2.54,5.71,5.71,5.71s5.71-2.54,5.71-5.71v-34.41h3.7c6.29,0,9.22,2.78,9.22,8.78h0c0,3.17,2.54,5.71,5.71,5.71s5.71-2.54,5.71-5.71h0c0-12.58-7.49-19.77-20.59-19.77h-15.12v45.36h0l-.05.05Z"/>
  <path id="path10" d="M371.93,603.95c0-9.79,5.47-15.7,14.59-15.7h10.75v24.77c-2.4,2.45-6,4.42-10.22,4.42-9.17,0-15.12-5.28-15.12-13.49h0ZM386.91,577.31c-15.55,0-26.45,10.75-26.45,26.16,0,14.45,11.14,24.96,26.45,24.96,4.13,0,8.06-1.2,11.14-3.07.86,2.06,2.5,3.7,4.9,3.7,3.17,0,5.71-2.54,5.71-5.71v-46.03h-21.74Z"/>
  <path id="path12" d="M324.8,566.37v45.07c0,10.42,6,16.94,15.65,16.94h12c3.02,0,5.52-2.45,5.52-5.47s-2.5-5.47-5.52-5.47h-10.75c-4.13,0-5.47-1.2-5.47-4.85v-24.29h16.22c3.02,0,5.52-2.5,5.52-5.47s-2.5-5.47-5.52-5.47h-16.22v-10.94c0-3.17-2.59-5.71-5.71-5.71s-5.71,2.54-5.71,5.71"/>
  <path id="path14" d="M272.19,592.58c0,8.64,7.06,15.65,15.7,15.65-.34,0,2.4,0,11.57,0,2.74,0,4.94,2.16,4.94,4.85,0,2.93-2.54,4.27-4.9,4.27h-19.2c-3.02,0-5.52,2.5-5.52,5.52s2.45,5.47,5.52,5.47h19.2c8.93,0,15.89-6.72,15.89-15.26s-7.1-15.84-15.89-15.84c.34,0-2.4,0-11.57-.05-2.59,0-4.75-2.11-4.75-4.66s1.97-4.32,4.66-4.32h19.39c3.02,0,5.52-2.45,5.52-5.47s-2.5-5.47-5.52-5.47h-19.39c-8.83,0-15.7,6.72-15.7,15.26"/>
  <path id="path16" d="M225.2,603.95c0-9.79,5.47-15.7,14.59-15.7h10.75v25.63c-2.64,2.11-5.95,3.55-10.22,3.55-9.17,0-15.12-5.28-15.12-13.49h0ZM240.23,577.31c-15.6,0-26.4,10.75-26.4,26.16,0,14.45,11.09,24.96,26.4,24.96,3.74,0,7.15-.82,10.32-1.97-.05,12.67-10.99,14.06-15.7,14.06-4.42,0-8.88-1.2-13.15-2.4l-.72-.19c-1.39-.38-2.88-.19-4.13.58-1.25.72-2.16,1.92-2.5,3.31-.38,1.39-.14,2.83.58,4.08.72,1.25,1.92,2.16,3.26,2.5l.62.19c5.86,1.92,11.23,2.88,16.42,2.88,16.46,0,26.73-10.8,26.73-28.17v-46.03h-21.74v.05Z"/>
  <path id="path18" d="M160.07,622.67c0,3.12,2.54,5.71,5.71,5.71s5.71-2.54,5.71-5.71v-34.41h10.66c5.95,0,10.66,5.09,10.66,11.52v22.89c0,3.12,2.54,5.71,5.71,5.71s5.71-2.54,5.71-5.71v-22.89c0-13.06-9.31-22.51-22.08-22.51h-22.08v45.41h0Z"/>
  <path id="path20" d="M124.26,618.45c-8.64,0-14.69-6.38-14.69-15.6s6.05-15.6,14.69-15.6,14.69,6.38,14.69,15.6-6.05,15.6-14.69,15.6h0ZM124.26,576.3c-14.88,0-26.54,11.66-26.54,26.54s11.66,26.54,26.54,26.54,26.54-11.66,26.54-26.54-11.66-26.54-26.54-26.54h0Z"/>
  <path id="path22" d="M81.07,577.31c-12.62,0-25.73,9.55-25.73,25.53s13.06,25.53,25.73,25.53h6.91c3.02,0,5.52-2.45,5.52-5.47s-2.5-5.47-5.52-5.47h-5.28c-7.73,0-15.5-4.99-15.5-14.54s7.82-14.54,15.5-14.54h5.28c3.02,0,5.52-2.45,5.52-5.47s-2.5-5.47-5.52-5.47h-6.91v-.1Z"/>
</svg>