<?xml version="1.0" encoding="UTF-8"?>
<svg id="Ebene_1" data-name="Ebene 1" xmlns="http://www.w3.org/2000/svg" viewBox="0 0 57.8 57.8">
  <defs>
    <style>
      .cls-1 {
        fill: #fff;
      }
    </style>
  </defs>
  <path id="path2" d="M40.35,7h-22.93c-2.72,0-4.93,2.2-4.93,4.92v22.95c0,2.72,2.21,4.92,4.93,4.92h22.93c2.72,0,4.93-2.2,4.93-4.92V11.92c0-2.72-2.21-4.92-4.93-4.92Z"/>
  <path id="path4" class="cls-1" d="M35.2,27.74c-.55-.15-1.1.12-1.3.52l-2.84,5.65c-.14.3-.49.43-.79.29-.17-.08-.29-.23-.34-.4l-1.33-6.98c-.14-.74-.84-1.12-1.23-1.21l-6.88-1.85c-.18-.06-.34-.2-.4-.4-.1-.32.07-.65.39-.75l6.02-2.22c.44-.16.75-.7.66-1.21l-1.13-6.17c-.06-.29.11-.59.4-.68.23-.07.47,0,.62.16l4.69,5.01c.23.24.86.64,1.47.42l5.82-2.13c-3.95-4.85-11.14-6.19-16.73-2.89-6.02,3.55-7.91,11.12-4.22,16.9,3.69,5.79,11.56,7.61,17.58,4.06,2.03-1.2,3.59-2.86,4.63-4.75l-5.09-1.38h0Z"/>
  <path id="path6" d="M40.38,40.98h-22.96c-2.72,0-4.92,2.2-4.92,4.91s2.2,4.91,4.92,4.91h22.96c2.72,0,4.92-2.2,4.92-4.91s-2.2-4.91-4.92-4.91h0Z"/>
  <path id="path8" class="cls-1" d="M39.63,47.08c0,.2.16.37.37.37s.37-.16.37-.37v-2.22h.24c.4,0,.59.18.59.57h0c0,.2.16.37.37.37s.37-.16.37-.37h0c0-.81-.48-1.27-1.33-1.27h-.97v2.92h0Z"/>
  <path id="path10" class="cls-1" d="M36.43,45.88c0-.63.35-1.01.94-1.01h.69v1.59c-.15.16-.39.28-.66.28-.59,0-.97-.34-.97-.87h0ZM37.4,44.16c-1,0-1.7.69-1.7,1.68,0,.93.72,1.61,1.7,1.61.27,0,.52-.08.72-.2.06.13.16.24.32.24.2,0,.37-.16.37-.37v-2.96h-1.4Z"/>
  <path id="path12" class="cls-1" d="M33.4,43.46v2.9c0,.67.39,1.09,1.01,1.09h.77c.19,0,.36-.16.36-.35s-.16-.35-.36-.35h-.69c-.27,0-.35-.08-.35-.31v-1.56h1.04c.19,0,.36-.16.36-.35s-.16-.35-.36-.35h-1.04v-.7c0-.2-.17-.37-.37-.37s-.37.16-.37.37"/>
  <path id="path14" class="cls-1" d="M30.01,45.15c0,.56.45,1.01,1.01,1.01-.02,0,.15,0,.74,0,.18,0,.32.14.32.31,0,.19-.16.27-.32.27h-1.24c-.19,0-.36.16-.36.36s.16.35.36.35h1.24c.57,0,1.02-.43,1.02-.98s-.46-1.02-1.02-1.02c.02,0-.15,0-.74,0-.17,0-.31-.14-.31-.3s.13-.28.3-.28h1.25c.19,0,.36-.16.36-.35s-.16-.35-.36-.35h-1.25c-.57,0-1.01.43-1.01.98"/>
  <path id="path16" class="cls-1" d="M26.99,45.88c0-.63.35-1.01.94-1.01h.69v1.65c-.17.14-.38.23-.66.23-.59,0-.97-.34-.97-.87h0ZM27.96,44.16c-1,0-1.7.69-1.7,1.68,0,.93.71,1.61,1.7,1.61.24,0,.46-.05.66-.13,0,.82-.71.91-1.01.91-.28,0-.57-.08-.85-.15h-.05c-.09-.04-.19-.02-.27.02-.08.05-.14.12-.16.21-.02.09,0,.18.04.26.05.08.12.14.21.16h.04c.38.14.72.2,1.06.2,1.06,0,1.72-.7,1.72-1.81v-2.96h-1.4,0Z"/>
  <path id="path18" class="cls-1" d="M22.8,47.08c0,.2.16.37.37.37s.37-.16.37-.37v-2.22h.69c.38,0,.69.33.69.74v1.47c0,.2.16.37.37.37s.37-.16.37-.37v-1.47c0-.84-.6-1.45-1.42-1.45h-1.42v2.92h0Z"/>
  <path id="path20" class="cls-1" d="M20.49,46.81c-.56,0-.95-.41-.95-1s.39-1,.95-1,.95.41.95,1-.39,1-.95,1h0ZM20.49,44.1c-.96,0-1.71.75-1.71,1.71s.75,1.71,1.71,1.71,1.71-.75,1.71-1.71-.75-1.71-1.71-1.71h0Z"/>
  <path id="path22" class="cls-1" d="M17.71,44.16c-.81,0-1.66.61-1.66,1.64s.84,1.64,1.66,1.64h.44c.19,0,.36-.16.36-.35s-.16-.35-.36-.35h-.34c-.5,0-1-.32-1-.94s.5-.94,1-.94h.34c.19,0,.36-.16.36-.35s-.16-.35-.36-.35h-.44Z"/>
</svg>