<?xml version="1.0" encoding="UTF-8"?>
<svg id="Ebene_2" xmlns="http://www.w3.org/2000/svg" version="1.1" viewBox="0 0 509.8 680.3">
  <!-- Generator: Adobe Illustrator 29.1.0, SVG Export Plug-In . SVG Version: 2.1.0 Build 142)  -->
  <defs>
    <style>
      .st0 {
        fill: #fff;
      }
    </style>
  </defs>
  <path id="path2" d="M432.8,0H76.7C34.4,0,0,34.2,0,76.4v356.5c0,42.2,34.3,76.4,76.6,76.4h356.2c42.2,0,76.6-34.2,76.6-76.4V76.4C509.4,34.2,475.1,0,432.8,0Z"/>
  <path id="path4" class="st0" d="M352.8,322.1c-8.5-2.3-17.1,1.9-20.2,8.1l-44.1,87.8c-2.2,4.7-7.6,6.7-12.3,4.5-2.6-1.2-4.5-3.6-5.3-6.2l-20.7-108.4c-2.2-11.5-13-17.4-19.1-18.8l-106.9-28.7c-2.8-.9-5.3-3.1-6.2-6.2-1.6-5,1.1-10.1,6.1-11.6l93.5-34.5c6.8-2.5,11.6-10.9,10.3-18.8l-17.6-95.8c-.9-4.5,1.7-9.2,6.2-10.6,3.6-1.1,7.3,0,9.6,2.5l72.8,77.8c3.6,3.7,13.4,9.9,22.8,6.5l90.4-33.1c-61.4-75.3-173-96.1-259.9-44.9-93.5,55.1-122.9,172.7-65.5,262.5,57.3,89.9,179.6,118.2,273.1,63.1,31.5-18.6,55.8-44.4,71.9-73.8l-79.1-21.4h0v.2Z"/>
  <path id="path6" d="M433.3,527.8H76.7C34.4,527.8.2,562,.2,604s34.2,76.3,76.4,76.3h356.6c42.2,0,76.4-34.2,76.4-76.3s-34.2-76.3-76.4-76.3h0Z"/>
  <path id="path8" class="st0" d="M421.6,622.5c0,3.1,2.5,5.7,5.7,5.7s5.7-2.5,5.7-5.7v-34.5h3.7c6.2,0,9.2,2.8,9.2,8.9h0c0,3.1,2.5,5.7,5.7,5.7s5.7-2.5,5.7-5.7h0c0-12.6-7.5-19.7-20.7-19.7h-15.1v45.4h-.2Z"/>
  <path id="path10" class="st0" d="M371.9,603.9c0-9.8,5.4-15.7,14.6-15.7h10.7v24.7c-2.3,2.5-6.1,4.3-10.3,4.3-9.2,0-15.1-5.3-15.1-13.5h0v.2ZM387,577.2c-15.5,0-26.4,10.7-26.4,26.1s11.2,25,26.4,25,8.1-1.2,11.2-3.1c.9,2,2.5,3.7,5,3.7s5.7-2.5,5.7-5.7v-46h-21.9Z"/>
  <path id="path12" class="st0" d="M324.9,566.3v45c0,10.4,6.1,16.9,15.7,16.9h12c3,0,5.6-2.5,5.6-5.4s-2.5-5.4-5.6-5.4h-10.7c-4.2,0-5.4-1.2-5.4-4.8v-24.2h16.2c3,0,5.6-2.5,5.6-5.4s-2.5-5.4-5.6-5.4h-16.2v-10.9c0-3.1-2.6-5.7-5.7-5.7s-5.7,2.5-5.7,5.7"/>
  <path id="path14" class="st0" d="M272.2,592.6c0,8.7,7,15.7,15.7,15.7-.3,0,2.3,0,11.5,0s5,2.2,5,4.8-2.5,4.2-5,4.2h-19.3c-3,0-5.6,2.5-5.6,5.6s2.5,5.4,5.6,5.4h19.3c8.9,0,15.8-6.7,15.8-15.2s-7.1-15.8-15.8-15.8c.3,0-2.3,0-11.5,0s-4.8-2.2-4.8-4.7,2-4.3,4.7-4.3h19.4c3,0,5.6-2.5,5.6-5.4s-2.5-5.4-5.6-5.4h-19.4c-8.9,0-15.7,6.7-15.7,15.2"/>
  <path id="path16" class="st0" d="M225.3,603.9c0-9.8,5.4-15.7,14.6-15.7h10.7v25.6c-2.6,2.2-5.9,3.6-10.3,3.6-9.2,0-15.1-5.3-15.1-13.5h0ZM240.4,577.2c-15.5,0-26.4,10.7-26.4,26.1s11,25,26.4,25,7.1-.8,10.3-2c0,12.7-11,14.1-15.7,14.1s-8.9-1.2-13.2-2.3h-.8c-1.4-.6-3-.3-4.2.3-1.2.8-2.2,1.9-2.5,3.3s0,2.8.6,4c.8,1.2,1.9,2.2,3.3,2.5h.6c5.9,2.2,11.2,3.1,16.5,3.1,16.5,0,26.7-10.9,26.7-28.1v-46h-21.7.2Z"/>
  <path id="path18" class="st0" d="M160.2,622.5c0,3.1,2.5,5.7,5.7,5.7s5.7-2.5,5.7-5.7v-34.5h10.7c5.9,0,10.7,5.1,10.7,11.5v22.8c0,3.1,2.5,5.7,5.7,5.7s5.7-2.5,5.7-5.7v-22.8c0-13-9.3-22.5-22.1-22.5h-22.1v45.4h0l-.3.2Z"/>
  <path id="path20" class="st0" d="M124.3,618.3c-8.7,0-14.8-6.4-14.8-15.5s6.1-15.5,14.8-15.5,14.8,6.4,14.8,15.5-6.1,15.5-14.8,15.5h0ZM124.3,576.2c-14.9,0-26.6,11.6-26.6,26.6s11.6,26.6,26.6,26.6,26.6-11.6,26.6-26.6-11.6-26.6-26.6-26.6h0Z"/>
  <path id="path22" class="st0" d="M81.2,577.2c-12.6,0-25.8,9.5-25.8,25.5s13,25.5,25.8,25.5h6.8c3,0,5.6-2.5,5.6-5.4s-2.5-5.4-5.6-5.4h-5.3c-7.8,0-15.5-5-15.5-14.6s7.8-14.6,15.5-14.6h5.3c3,0,5.6-2.5,5.6-5.4s-2.5-5.4-5.6-5.4c0,0-6.8,0-6.8,0Z"/>
</svg>