<?xml version="1.0" encoding="UTF-8"?>
<svg id="Ebene_2" xmlns="http://www.w3.org/2000/svg" version="1.1" viewBox="0 0 680.3 680.3">
  <!-- Generator: Adobe Illustrator 29.1.0, SVG Export Plug-In . SVG Version: 2.1.0 Build 142)  -->
  <defs>
    <style>
      .st0 {
        fill: #010101;
      }

      .st1 {
        fill: #fff;
      }

      .st2 {
        fill: #fe6702;
      }
    </style>
  </defs>
  <rect class="st0" y="0" width="680.3" height="680.3"/>
  <g id="OTELO">
    <g>
      <path class="st1" d="M319,615.3c-8.7-4.1-17.1-10.9-18.4-21.1-1.1-8.4-1-32.8,0-41.3,1.4-11.5,12-20.6,23.3-21.8,8.9-.9,37-1.1,44.6,1.8,6.4,2.4,16.3,12.2,16.3,19.2v29.2h-64c-2.9,2.9-1,14.8,3.7,14.8h59.5c-2.2,9.9-9.9,16.2-19.2,19.2h-45.8ZM325.5,550.4c-2.5.4-5,2.2-5.6,4.8-.4,1.9-.8,9.9,1.1,10.5l43.9-.2c1.5-7.4,2.2-14.4-7-15.2-6.6-.6-26.4-.9-32.4.2h0Z"/>
      <path class="st1" d="M577,550.2v47.3c-2.2,2.3-2.8,5.4-4.9,8.1-3.8,5-8.7,7.4-14.3,9.7h-46.6c-7-3.9-12.8-6.7-16.2-14.5-.6-1.4-2.3-6.1-2.3-7.3v-33.7h19.2v30c0,2.7,2.8,5.8,5.6,6.2,5.9,1,28.5.8,34.7,0,3.4-.4,5.2-2.2,5.5-5.5.7-6.3.9-28.8,0-34.7-.5-2.8-3.6-5.6-6.2-5.6h-30v-18.1l1.1-1.1h32.5c1.2,0,5.9,1.7,7.3,2.3,7.8,3.4,11.2,9.5,14.5,16.9h0Z"/>
      <path class="st1" d="M122.3,615.3c-8.1-4.1-15.1-9.1-17.5-18.3-1.9-7.5-1.8-34.3-.9-42.7,1-10.3,11.6-23.3,22.5-23.3h32.9v19.2h-29.9c-3.5,0-5.8,4-6.2,7.1-.9,6.8-.7,23.2,0,30.3.4,4.5,1.3,7.9,6.3,8.5,7.1.8,26.9.8,34,0,1.9-.2,5.5-2.1,5.5-4.1v-32.2h19.2v35.9c0,.3-2.1,5.5-2.6,6.3-3.5,6.8-9.7,10.7-16.7,13.3h-46.6,0Z"/>
      <path class="st1" d="M234.7,615.3v-64.3h-30.7c-.8,0-1-1.3-.8-2.2,1.3-5.1,7.2-11.6,11.8-14.1,1.6-.9,7.6-3.6,9-3.6h61.7v20h-31.1v64.3h-20Z"/>
      <path class="st1" d="M424.7,615.3c-4.7-2.5-8.6-4-12.2-8.1-2-2.3-6.3-9.3-6.3-12.2v-64h19.2v60.3c0,2.1,2.7,4.4,4.9,4.8,17.9,3,48.3-9,50.6,19.3h-56.2,0Z"/>
      <path class="st2" d="M188.1,550.2h-19.2v-18.5c9.1.8,17.6,9.7,19.2,18.5Z"/>
      <path class="st2" d="M512,531.7v18.5h-18.5c1-8.7,9.8-17.5,18.5-18.5Z"/>
    </g>
    <g>
      <path class="st1" d="M408.5,65.1v87.3h-145.3c-12.7,0-26.4,15.1-26.2,27.7v151.6c1.1,14.4,10.4,25.2,24.8,27.7h157.5c9.8,0,24.8-13.7,24.8-23.3v-147.2l1.1-1.1h86.1v154.2c-4.5,55.2-49.6,100-104.6,104.6-56.1-2.8-115.8,3.7-171.5,0-56.6-3.8-103-52.6-105.4-109,2.4-53.7-3.1-110,0-163.5,3.4-59.4,50.6-105.9,109.8-109.1h149s0,0,0,0Z"/>
      <path class="st2" d="M531.2,152.3h-87.2v-87.3c42,10.7,77.4,44.8,87.2,87.3Z"/>
    </g>
  </g>
</svg>