<?xml version="1.0" encoding="UTF-8"?>
<svg id="Ebene_2" data-name="Ebene 2" xmlns="http://www.w3.org/2000/svg" viewBox="0 0 680.31 680.31">
  <defs>
    <style>
      .cls-1 {
        fill: #fff;
      }

      .cls-2 {
        fill: #e20d14;
      }
    </style>
  </defs>
  <path class="cls-2" d="M679.24,329.69c0,5.45,0,10.89,0,16.34v1.06c-2.52,97.89-40.22,179.98-112.1,246.02-47.17,43.34-102.94,70.41-166.06,81.77-13.99,2.52-28.27,3.41-42.42,4.97-2.81.31-5.65.26-8.48.38-.24,0-.48.01-.72.02-90.19,1.65-169.34-27.11-236.47-87.37-55.38-49.71-90.35-111.58-105.23-184.48-3.39-16.62-5.45-33.68-6.24-50.63-4.18-89.72,22.25-169.54,80.35-238.13C131.26,61.33,193.76,23.87,268.56,7.7c15.74-3.4,31.94-4.86,47.99-6.6,9.28-1.01,18.69-1.19,28.03-1.06,47.29.68,92.6,10.41,135.61,30.32.6.28,1.16.65,1.74.98-5.6-.45-11.2-1.27-16.8-1.26-8.53.01-17.12.11-25.58,1.05-12.1,1.36-24.2,3.09-36.16,5.42-27.79,5.4-54.26,14.87-79.66,27.28-55.73,27.22-100.89,66.13-132.47,120.06-17.35,29.62-29.53,61.19-35.48,94.97-2.19,12.43-2.48,25.2-3.64,37.81,0,3.54,0,7.08,0,10.61.24,4.73.16,9.5.79,14.18,1.5,11.18,2.66,22.47,5.16,33.45,10.68,46.87,34.61,85.65,72.49,115.45,27.89,21.95,59.54,35.22,94.92,38.85,9.57.98,19.33.91,28.94.34,9.6-.58,19.25-1.81,28.67-3.77,41.04-8.56,74.75-29.4,101.18-61.89,19.98-24.56,33.42-52.37,38.58-83.62,2.22-13.44,2.5-27.3,2.5-40.96,0-9.92-1.23-19.97-3.07-29.74-7.94-42.11-29.29-75.79-64.57-100.39-24.61-17.16-52.13-27.65-80.95-35.14-.56-.14-.95-.91-1.42-1.39,0-3.72,0-7.43,0-11.15,1.02-7.38,1.48-14.89,3.16-22.13,7.64-33.05,25.48-59.67,52.03-80.52,16.39-12.87,35.3-20.6,55.1-26.4,26.97,13.09,51.95,29.22,74.66,48.81,53.82,46.4,90.24,103.85,108.02,172.65,4.62,17.88,6.78,36.41,9.65,54.71,1.03,6.58.84,13.35,1.21,20.03,0,.35.01.71.02,1.06Z"/>
  <path class="cls-1" d="M152.15,316.67c1.16-12.61,1.45-25.38,3.64-37.81,5.95-33.78,18.13-65.35,35.48-94.97,31.58-53.93,76.74-92.84,132.47-120.06,25.4-12.41,51.88-21.88,79.66-27.28,11.95-2.32,24.05-4.06,36.16-5.42,8.46-.95,17.05-1.04,25.58-1.05,5.6,0,11.2.81,16.8,1.26,1.28.28,2.57.56,3.85.85,0,0,0,.08-.01.11-.02.05-.06.09-.1.13-19.81,5.8-38.72,13.53-55.1,26.4-26.55,20.86-44.39,47.47-52.03,80.52-1.67,7.23-2.14,14.74-3.16,22.12,0,3.72,0,7.43,0,11.15.47.48.86,1.25,1.42,1.39,28.82,7.49,56.34,17.98,80.95,35.14,35.28,24.6,56.63,58.27,64.57,100.39,1.84,9.77,3.07,19.82,3.07,29.74,0,13.67-.28,27.53-2.5,40.96-5.16,31.25-18.6,59.06-38.58,83.62-26.43,32.5-60.14,53.33-101.18,61.89-9.42,1.96-19.07,3.19-28.67,3.77-9.61.58-19.37.65-28.94-.34-35.38-3.63-67.03-16.9-94.92-38.85-37.88-29.81-61.81-68.58-72.49-115.45-2.5-10.97-3.66-22.26-5.16-33.45-.63-4.68-.55-9.45-.79-14.18,0-3.54,0-7.08,0-10.61Z"/>
</svg>