<?xml version="1.0" encoding="UTF-8"?>
<svg id="Ebene_2" xmlns="http://www.w3.org/2000/svg" version="1.1" viewBox="0 0 680.3 181.5">
  <!-- Generator: Adobe Illustrator 29.2.1, SVG Export Plug-In . SVG Version: 2.1.0 Build 116)  -->
  <defs>
    <style>
      .st0 {
        fill: #7d2579;
      }

      .st1 {
        fill: #3d3d3d;
      }
    </style>
  </defs>
  <g>
    <path class="st1" d="M440.3,53.8c21.8-1.1,38.3,11.5,41.3,33.3,3.2,23.4-7.6,45.4-32.5,48.6s-41.7-9.1-45.4-32.2c-4.1-25.8,9.2-48.4,36.6-49.7ZM440.6,68.6c-12.4.9-16.7,10.6-17.6,21.7-1.4,16.6,3.8,34.2,24.2,30.5,15-2.7,16.2-22.1,14.4-34.2s-8.3-19.1-20.9-18.1Z"/>
    <path class="st1" d="M592.8,97.5c.2,4.6,1.2,9.5,3.4,13.6,5.8,10.9,19.6,12,30,7.6,3.4-1.4,7.6-4.9,11.2-4.5s1.9.8,2.7,1.7c1.9,2,3.5,4.7,5.4,6.7.1.1.1.3,0,.4,0,.4-3.2,3.3-3.7,3.8-13.5,11.3-38.3,12.4-52.6,2.1-16.9-12.2-20.5-40.2-10.1-57.6,14.9-24.9,56.7-24,65.5,5.7,1.3,4.4,2.5,13.1,1.4,17.4s-2.1,2.9-4.6,3.1h-48.7ZM629,85.8c0-5.9-1.9-11.8-6.9-15.3s-11.9-3.6-17.4-1.7-11,9.9-11.7,17h35.9Z"/>
    <path class="st1" d="M563,135h-19.2v-51.9c-.3-19.1-21.7-16.8-31.1-5.8v57.7h-19.2V55.1h13.2c.2,0,1.7.8,1.9,1,2.1,1.6,2.2,6.2,2.8,8.6.2.3,2.2-2,2.5-2.2,19.1-16.9,48-8.9,49.2,18.2v54.2Z"/>
    <path class="st1" d="M361.4,55.7l.2-9.3c.6-6.2,2.7-12.4,6.9-17.1,7.9-8.8,22.1-10.6,33-7.4l-.2,9.1c-.1,4.7-4.8,3.7-8,3.9-5.2.4-9.3,1.5-11.7,6.6s-1.4,9.4-1.5,14.1h20.4s.3.3.3.3v13.5h-20.2v65.5h-19.1s-.3-.3-.3-.3v-65.2c-3.3-.7-8.9-.4-11-3.3s-.7-1-.7-1.3v-9.3h11.7Z"/>
  </g>
  <g>
    <path class="st0" d="M153,53.8c21.2-1.1,37.7,10.9,41.1,32.1,3.8,23.7-7,46.5-32.4,49.8s-42.4-9.6-45.5-33.3,9.8-47.2,36.8-48.6ZM153.2,68.6c-12.1,1-16.5,10.6-17.4,21.5s1,28.3,15.1,30.8,24.6-11.9,24.1-27.9-5.8-25.7-21.7-24.4Z"/>
    <path class="st0" d="M224.5,55.1v52.5c1.1,18.5,21.7,15.7,30.9,5.2v-57.7h19.4v79.9h-12.6c-.1,0-1.3-.4-1.6-.5-3.5-1.5-2.7-6.3-4-9.2-5.8,6.1-13.5,10.5-22.1,10.9-19.1,1.1-29.2-11.9-29.5-30v-51h19.4Z"/>
    <path class="st0" d="M53.5,55.1c1.6.3,3.4,2.2,4,3.7,5.3,14.3,12.5,28.4,17.6,42.7.8,2.2,1.4,4.5,1.9,6.8.9-2.5,1.7-5,2.6-7.5,5.4-14.6,11.3-29.1,17.2-43.5.5-.7,2.5-2.1,3.2-2.1h16.6l-43.4,101.7c-.6,1.7-2.7,4.1-4.5,4.1h-16.2l14.2-30.4.5-1.7L35.1,55.1h18.3Z"/>
    <path class="st0" d="M310.3,135h-19.2V55.1h13.2c0,0,1.3.4,1.4.5,1.7.8,2.2,2.7,2.5,4.4.5,2.9.6,6.1,1,9.1.3,0,.4-.1.5-.3,1.3-1.7,2.3-3.6,3.7-5.3,6.3-7.6,15.9-12.5,25.8-8.7s2.8,1.2,2.8,1.8l-2.5,14.6c-1.1,3.8-5.4,1.7-8.2,1.3-8.3-1.1-14.3,1.9-18.8,8.8s-2.2,3.7-2.2,4.1v49.6Z"/>
  </g>
</svg>