<?xml version="1.0" encoding="UTF-8" standalone="no"?>
<svg
   xmlns:dc="http://purl.org/dc/elements/1.1/"
   xmlns:cc="http://creativecommons.org/ns#"
   xmlns:rdf="http://www.w3.org/1999/02/22-rdf-syntax-ns#"
   xmlns:svg="http://www.w3.org/2000/svg"
   xmlns="http://www.w3.org/2000/svg"
   xmlns:sodipodi="http://sodipodi.sourceforge.net/DTD/sodipodi-0.dtd"
   xmlns:inkscape="http://www.inkscape.org/namespaces/inkscape"
   width="1000"
   height="1334.7284"
   viewBox="0 0 1000 1334.7284"
   version="1.1"
   id="svg24"
   sodipodi:docname="Untitled.svg"
   style="fill:none"
   inkscape:version="0.92.4 (5da689c313, 2019-01-14)">
  <metadata
     id="metadata30">
    <rdf:RDF>
      <cc:Work
         rdf:about="">
        <dc:format>image/svg+xml</dc:format>
        <dc:type
           rdf:resource="http://purl.org/dc/dcmitype/StillImage" />
        <dc:title></dc:title>
      </cc:Work>
    </rdf:RDF>
  </metadata>
  <defs
     id="defs28" />
  <sodipodi:namedview
     pagecolor="#ffffff"
     bordercolor="#111111"
     borderopacity="1"
     objecttolerance="10"
     gridtolerance="10"
     guidetolerance="10"
     inkscape:pageopacity="0"
     inkscape:pageshadow="2"
     inkscape:window-width="1920"
     inkscape:window-height="1017"
     id="namedview26"
     showgrid="false"
     fit-margin-top="0"
     fit-margin-left="0"
     fit-margin-right="0"
     fit-margin-bottom="0"
     inkscape:zoom="0.10265454"
     inkscape:cx="1818.4685"
     inkscape:cy="578.66422"
     inkscape:window-x="1912"
     inkscape:window-y="-8"
     inkscape:window-maximized="1"
     inkscape:current-layer="svg24">
    <inkscape:grid
       type="xygrid"
       id="grid43"
       originx="-1295.8383"
       originy="810.17666" />
  </sodipodi:namedview>
  <path
     d="M 849.0726,0 H 150.2543 C 67.2707,0 0,67.10756 0,149.88955 V 849.3709 c 0,82.78233 67.2707,149.88958 150.2543,149.88958 h 698.8183 c 82.9828,0 150.2543,-67.10725 150.2543,-149.88958 V 149.88955 C 999.3269,67.10756 932.0554,0 849.0726,0 Z"
     id="path2"
     style="opacity:1;fill:#000000;stroke-width:10.82722378"
     inkscape:connector-curvature="0"
     sodipodi:nodetypes="sssssssss" />
  <path
     d="m 692.0192,632.08833 c -16.7937,-4.63757 -33.6603,3.78126 -39.7148,15.9089 l -86.5335,172.338 c -4.1951,9.14309 -14.8866,13.03154 -24.0775,8.81073 -5.0765,-2.3664 -8.9156,-7.1696 -10.2974,-12.19904 L 490.7632,604.26509 c -4.2548,-22.52101 -25.5666,-33.94712 -37.3554,-36.99123 L 243.7484,510.79492 c -5.5185,-1.68875 -10.2867,-6.19426 -12.1936,-12.09186 -3.0862,-9.59559 2.1822,-19.845 11.7648,-22.92482 l 183.5202,-67.5251 c 13.5409,-4.91033 22.8853,-21.20029 20.1563,-37.03775 L 412.4533,183.2532 c -1.7284,-8.90601 3.4685,-17.85963 12.289,-20.70129 7.0204,-2.24731 14.3865,-0.0834 19.0591,4.958 l 143.0552,152.71932 c 6.9359,7.38394 26.2213,19.53536 44.7687,12.85399 L 809.0906,268.10206 C 688.7174,120.22275 469.5228,79.42711 299.03,179.9006 115.4979,288.01847 57.8799,518.72553 170.3615,695.13066 282.8436,871.58232 522.7069,926.94409 706.1792,818.84894 768.1598,782.31024 815.7411,731.77654 847.2915,674.09598 L 692.0072,632.10024 Z"
     id="path4"
     style="fill:#ffffff;stroke-width:10.82722378"
     inkscape:connector-curvature="0" />
  <path
     d="M 850.0234,1035.5041 H 150.1327 c -82.8303,0 -149.9751,66.9838 -149.9751,149.6122 0,82.6288 67.1448,149.6121 149.9751,149.6121 h 699.8907 c 82.8304,0 149.9766,-66.9833 149.9766,-149.6121 0,-82.6284 -67.1462,-149.6122 -149.9766,-149.6122 z"
     id="path6"
     style="fill:#000000;fill-opacity:1;stroke-width:5.40361118"
     inkscape:connector-curvature="0" />
  <path
     d="m 827.081,1221.7123 c 0,6.1601 5.01,11.1862 11.1929,11.1862 6.1882,0 11.1927,-5.0261 11.1927,-11.1862 v -67.5009 c 2.7187,0.024 7.2801,0.024 7.2801,0.024 12.29,0 18.0351,5.4772 18.0351,17.2329 v 0.024 c 0,6.1595 5.01,11.1678 11.1712,11.1678 6.1612,0 11.2144,-5.032 11.2144,-11.1678 l 0.015,-0.024 c 0,-24.6388 -14.7329,-38.7739 -40.4314,-38.7739 l -29.682,-0.053 0.022,89.0717 z"
     id="path8"
     style="fill:#ffffff;stroke-width:5.40361118"
     inkscape:connector-curvature="0" />
  <path
     d="m 729.7125,1184.998 c 0,-19.2508 10.7118,-30.7628 28.6443,-30.7628 0,0 17.1647,-0.03 21.0992,-0.053 v 48.6186 c -4.7072,4.8423 -11.7386,8.6166 -20.0994,8.6166 -18.0081,0 -29.6441,-10.3849 -29.6441,-26.419 z m 29.4603,-52.3157 c -30.5467,0 -51.8676,21.0958 -51.8676,51.3243 0,28.3478 21.8073,48.9453 51.8676,48.9453 8.0583,0 15.8353,-2.35 21.8937,-6.0709 1.7079,4.0234 4.9345,7.2401 9.5825,7.2401 6.1774,0 11.1981,-5.0208 11.1981,-11.1625 v -90.2763 H 759.178 Z"
     id="path10"
     style="fill:#ffffff;stroke-width:5.40361118"
     inkscape:connector-curvature="0" />
  <path
     d="m 637.2457,1111.23 v 88.4729 c 0,20.4848 11.7496,33.2253 30.6981,33.2253 l 23.526,0.023 c 5.9287,0 10.7929,-4.8484 10.7929,-10.7887 0,-5.9402 -4.8642,-10.7523 -10.7929,-10.7523 l -21.1266,-0.036 c -8.1067,0 -10.7116,-2.2967 -10.7116,-9.4828 v -47.6634 h 31.8382 c 5.9287,0 10.7929,-4.8483 10.7929,-10.7648 0,-5.9515 -4.8642,-10.7761 -10.7929,-10.7761 h -31.8382 v -21.4643 c 0,-6.1773 -5.0425,-11.1797 -11.1875,-11.1797 -6.1829,0 -11.1928,4.9964 -11.1928,11.1797"
     id="path12"
     style="fill:#ffffff;stroke-width:5.40361118"
     inkscape:connector-curvature="0" />
  <path
     d="m 534.0673,1162.6677 c 0,16.9303 13.8142,30.733 30.8223,30.733 -0.654,0 4.7289,0.023 22.7315,0.095 5.3452,0 9.6687,4.2843 9.6687,9.5477 0,5.7326 -4.9667,8.3378 -9.5823,8.3378 l -37.659,0.036 c -5.9666,0 -10.8036,4.824 -10.8036,10.7643 0,5.9401 4.837,10.7767 10.8036,10.7767 l 37.6483,0.012 c 17.4946,0 31.1951,-13.1503 31.1951,-29.9205 0,-17.1617 -13.9761,-31.1189 -31.1898,-31.1189 0.6433,0 -4.729,-0.023 -22.7208,-0.1066 -5.1234,0 -9.2796,-4.1065 -9.2796,-9.1504 0,-4.8899 3.859,-8.4562 9.1823,-8.4562 h 38.0536 c 5.9398,0 10.7876,-4.8246 10.7876,-10.7648 0,-5.9398 -4.8478,-10.7643 -10.7876,-10.7643 l -38.0536,-0.042 c -17.2891,0 -30.8221,13.1917 -30.8221,30.0269"
     id="path14"
     style="fill:#ffffff;stroke-width:5.40361118"
     inkscape:connector-curvature="0" />
  <path
     d="m 441.8169,1184.998 c 0,-19.2508 10.7279,-30.7628 28.671,-30.7628 0,0 17.1542,-0.03 21.0833,-0.053 v 50.2626 c -5.1722,4.1298 -11.7169,6.9726 -20.0888,6.9726 -18.0187,0 -29.6655,-10.3849 -29.6655,-26.419 z m 29.4711,-52.3157 c -30.5574,0 -51.8189,21.0958 -51.8189,51.3243 0,28.3478 21.7695,48.9453 51.8189,48.9453 7.3502,0 13.9978,-1.5726 20.2453,-3.8396 -0.129,24.8641 -21.5748,27.5882 -30.8221,27.5882 -8.6581,0 -17.3973,-2.3978 -25.8445,-4.6939 l -1.4107,-0.3799 c -2.7726,-0.7239 -5.6693,-0.3263 -8.0636,1.1158 -2.4429,1.4301 -4.1993,3.7381 -4.9074,6.4918 -0.7242,2.7235 -0.3242,5.5842 1.1188,8.0348 1.4321,2.4625 3.7346,4.1952 6.4476,4.9191 l 1.2485,0.3799 c 11.4632,3.804 22.0074,5.6673 32.2219,5.6673 32.3248,0 52.4296,-21.1909 52.4296,-55.2827 v -90.2763 z"
     id="path16"
     style="fill:#ffffff;stroke-width:5.40361118"
     inkscape:connector-curvature="0" />
  <path
     d="m 314.0799,1221.7301 c 0,6.1541 5.0264,11.1743 11.2038,11.1743 6.1827,0 11.1767,-5.0202 11.1767,-11.1743 0,0 0.027,-63.0205 0.027,-67.5544 3.9127,0.024 20.8777,0.053 20.8777,0.053 11.6956,0 20.8779,9.9398 20.8779,22.621 v 44.88 c 0,6.1541 5.0207,11.1623 11.1928,11.1623 6.1667,0 11.2146,-5.0082 11.2146,-11.1623 l -0.039,-44.8978 c 0,-25.5822 -18.1865,-44.15 -43.2473,-44.15 h -43.2852 z"
     id="path18"
     style="fill:#ffffff;stroke-width:5.40361118"
     inkscape:connector-curvature="0" />
  <path
     d="m 243.7882,1213.3868 c -16.9864,0 -28.8441,-12.5742 -28.8441,-30.5667 0,-17.9925 11.8577,-30.5671 28.8441,-30.5671 16.992,0 28.8497,12.5746 28.8497,30.5671 0,17.9925 -11.8739,30.5667 -28.8497,30.5667 z m 0,-82.6748 c -29.1845,0 -52.0459,22.8943 -52.0459,52.1081 0,29.2138 22.856,52.0958 52.0459,52.0958 29.1902,0 52.0352,-22.882 52.0352,-52.0958 0,-29.2138 -22.8559,-52.1081 -52.0352,-52.1081 z"
     id="path20"
     style="fill:#ffffff;stroke-width:5.40361118"
     inkscape:connector-curvature="0" />
  <path
     d="m 159.1041,1132.6942 c -24.796,0 -50.4461,18.7397 -50.4461,50.1259 0,31.3857 25.6609,50.114 50.457,50.114 l 13.5167,0.023 c 5.9505,0 10.804,-4.8425 10.804,-10.7885 0,-5.9463 -4.8535,-10.7762 -10.804,-10.7762 l -10.3333,-0.012 c -15.1329,0 -30.4494,-9.8096 -30.4494,-28.5612 0,-18.7521 15.322,-28.5849 30.4494,-28.5849 l 10.3333,-0.024 c 5.9505,0 10.804,-4.8246 10.804,-10.7648 0,-5.9397 -4.8535,-10.7643 -10.804,-10.7643 z"
     id="path22"
     style="fill:#ffffff;stroke-width:5.40361118"
     inkscape:connector-curvature="0" />
</svg>
