<?xml version="1.0" encoding="UTF-8"?>
<svg id="Ebene_1" data-name="Ebene 1" xmlns="http://www.w3.org/2000/svg" viewBox="0 0 881.33 180.59">
  <defs>
    <style>
      .cls-1 {
        fill: #fff;
      }
    </style>
  </defs>
  <g>
    <path class="cls-1" d="M68.43,33.6v24.07c0,5.23-1.48,9.29-4.45,12.16-2.96,2.87-7.24,4.31-12.82,4.31s-9.64-1.39-12.57-4.19c-2.93-2.79-4.39-6.8-4.39-12.04v-24.32h10.86v23.47c0,2.83.53,4.88,1.59,6.16,1.06,1.28,2.62,1.92,4.68,1.92,2.21,0,3.81-.63,4.8-1.9s1.49-3.34,1.49-6.22v-23.42h10.81Z"/>
    <path class="cls-1" d="M127.06,73.6h-14.17l-14.61-28.18h-.25c.35,4.43.52,7.81.52,10.15v18.03h-9.57v-40h14.12l14.55,27.79h.16c-.26-4.03-.38-7.27-.38-9.71v-18.08h9.63v40Z"/>
    <path class="cls-1" d="M147.87,33.6h13.95c5.44,0,9.47.81,12.11,2.42,2.64,1.61,3.95,4.13,3.95,7.54,0,2.24-.57,4.16-1.72,5.75-1.15,1.59-2.66,2.61-4.54,3.06v.27c2.48.66,4.28,1.75,5.39,3.28,1.11,1.53,1.67,3.52,1.67,5.96,0,3.63-1.36,6.49-4.09,8.58-2.73,2.09-6.44,3.13-11.15,3.13h-15.57v-40ZM158.67,48.95h3.26c1.55,0,2.75-.32,3.6-.96s1.27-1.59,1.27-2.84c0-2.24-1.7-3.37-5.09-3.37h-3.04v7.17ZM158.67,56.85v8.4h3.8c3.38,0,5.06-1.42,5.06-4.27,0-1.33-.45-2.35-1.35-3.06-.9-.71-2.21-1.07-3.93-1.07h-3.58Z"/>
    <path class="cls-1" d="M221.52,73.6h-23.75v-40h23.75v8.67h-12.94v6.29h11.98v8.67h-11.98v7.55h12.94v8.81Z"/>
    <path class="cls-1" d="M256.75,50.18h17.26v21.56c-4.69,1.61-9.84,2.41-15.46,2.41-6.17,0-10.93-1.79-14.29-5.36-3.37-3.58-5.05-8.67-5.05-15.29s1.84-11.48,5.53-15.07c3.68-3.59,8.85-5.39,15.48-5.39,2.52,0,4.89.24,7.13.71,2.23.47,4.18,1.08,5.84,1.81l-3.42,8.48c-2.88-1.42-6.04-2.13-9.49-2.13-3.16,0-5.59,1.03-7.32,3.08s-2.59,4.98-2.59,8.8.78,6.59,2.34,8.55c1.56,1.96,3.81,2.94,6.74,2.94,1.6,0,3.08-.16,4.43-.46v-6.27h-7.14v-8.34Z"/>
    <path class="cls-1" d="M305.12,59.04v14.55h-10.81v-40h13.11c10.87,0,16.3,3.94,16.3,11.82,0,4.63-2.26,8.22-6.79,10.75l11.65,17.43h-12.26l-8.48-14.55h-2.74ZM305.12,50.92h2.02c3.78,0,5.66-1.67,5.66-5.01,0-2.75-1.85-4.13-5.55-4.13h-2.13v9.14Z"/>
    <path class="cls-1" d="M368.14,73.6h-23.75v-40h23.75v8.67h-12.94v6.29h11.98v8.67h-11.98v7.55h12.94v8.81Z"/>
    <path class="cls-1" d="M425.38,73.6h-14.17l-14.61-28.18h-.25c.35,4.43.52,7.81.52,10.15v18.03h-9.58v-40h14.12l14.55,27.79h.16c-.26-4.03-.38-7.27-.38-9.71v-18.08h9.63v40Z"/>
    <path class="cls-1" d="M474.69,73.6h-31.16v-6.67l17.32-24.59h-16.91v-8.73h30.31v6.65l-17.32,24.62h17.75v8.73Z"/>
    <path class="cls-1" d="M510.21,73.6h-10.81v-31.16h-9.77v-8.84h30.31v8.84h-9.74v31.16Z"/>
    <path class="cls-1" d="M561.57,73.6h-23.75v-40h23.75v8.67h-12.94v6.29h11.98v8.67h-11.98v7.55h12.94v8.81Z"/>
    <path class="cls-1" d="M606.89,61.45c0,2.48-.63,4.68-1.89,6.61-1.26,1.92-3.07,3.42-5.44,4.49-2.37,1.07-5.15,1.6-8.34,1.6-2.66,0-4.9-.19-6.7-.56-1.81-.37-3.68-1.03-5.64-1.96v-9.63c2.06,1.06,4.2,1.88,6.43,2.48,2.22.59,4.27.89,6.13.89,1.6,0,2.78-.28,3.53-.83.75-.56,1.12-1.27,1.12-2.15,0-.55-.15-1.03-.45-1.44-.3-.41-.79-.83-1.45-1.25-.67-.42-2.44-1.28-5.32-2.57-2.61-1.19-4.56-2.33-5.87-3.45s-2.27-2.39-2.9-3.83c-.63-1.44-.94-3.15-.94-5.12,0-3.68,1.34-6.56,4.02-8.62,2.68-2.06,6.36-3.09,11.05-3.09,4.14,0,8.36.96,12.67,2.87l-3.31,8.34c-3.74-1.71-6.97-2.57-9.69-2.57-1.4,0-2.43.25-3.06.74-.64.49-.96,1.1-.96,1.83,0,.78.41,1.49,1.22,2.11s3.01,1.75,6.61,3.39c3.45,1.55,5.84,3.21,7.18,4.99,1.34,1.78,2.01,4.02,2.01,6.72Z"/>
    <path class="cls-1" d="M66.13,126.97c0,6.71-1.76,11.79-5.28,15.22-3.52,3.44-8.69,5.16-15.51,5.16h-9.58v-40h10.81c6.38,0,11.24,1.67,14.57,5.01,3.33,3.34,4.99,8.21,4.99,14.61ZM63.09,127.08c0-5.73-1.46-10.04-4.36-12.93-2.91-2.89-7.18-4.34-12.82-4.34h-7.36v35.07h6.62c11.95,0,17.92-5.94,17.92-17.81Z"/>
    <path class="cls-1" d="M107.47,133.23h-16.25l-5.58,14.12h-3.09l16.09-40.16h1.78l15.76,40.16h-3.15l-5.55-14.12ZM92.23,130.71h14.31l-5.44-14.42c-.46-1.13-1-2.7-1.64-4.71-.49,1.75-1.03,3.34-1.61,4.76l-5.61,14.36Z"/>
    <path class="cls-1" d="M145.14,147.35h-2.82v-37.37h-13v-2.63h28.81v2.63h-13v37.37Z"/>
    <path class="cls-1" d="M198.81,147.35h-21.86v-40h21.86v2.57h-19.07v15.13h18v2.57h-18v17.15h19.07v2.57Z"/>
    <path class="cls-1" d="M249.84,147.35h-2.82l-23.69-35.51h-.22c.22,4.23.33,7.42.33,9.58v25.93h-2.68v-40h2.79l23.66,35.46h.16c-.16-3.28-.25-6.4-.25-9.36v-26.1h2.71v40Z"/>
    <path class="cls-1" d="M297.69,107.35h3.04l-14.96,40h-2.46l-14.91-40h2.98l10.07,27.22c1.53,4.1,2.56,7.19,3.09,9.25.37-1.37,1.09-3.49,2.16-6.37l11-30.09Z"/>
    <path class="cls-1" d="M352.89,127.29c0,6.35-1.59,11.37-4.76,15.06-3.17,3.69-7.55,5.54-13.13,5.54s-9.93-1.85-13.1-5.54c-3.17-3.69-4.76-8.73-4.76-15.11s1.6-11.38,4.8-15.03c3.2-3.66,7.57-5.49,13.12-5.49s9.95,1.84,13.1,5.51c3.16,3.68,4.73,8.7,4.73,15.06ZM320.17,127.29c0,5.73,1.28,10.15,3.83,13.28,2.55,3.13,6.22,4.69,11,4.69s8.49-1.55,11.04-4.65c2.54-3.1,3.82-7.54,3.82-13.32s-1.27-10.18-3.82-13.25c-2.54-3.07-6.21-4.61-10.98-4.61s-8.43,1.55-11.01,4.65c-2.58,3.1-3.87,7.51-3.87,13.21Z"/>
    <path class="cls-1" d="M374.97,147.35v-40h2.79v37.37h19.07v2.63h-21.86Z"/>
    <path class="cls-1" d="M446.02,107.35v25.88c0,4.6-1.33,8.19-3.99,10.78-2.66,2.59-6.37,3.88-11.13,3.88s-8.25-1.3-10.85-3.9c-2.6-2.6-3.9-6.22-3.9-10.87v-25.77h2.82v25.88c0,3.85,1.07,6.84,3.2,8.99,2.13,2.14,5.15,3.21,9.06,3.21s6.77-1.05,8.86-3.16c2.1-2.11,3.15-5.03,3.15-8.77v-26.15h2.79Z"/>
    <path class="cls-1" d="M487.39,147.35l-14.91-36.93h-.22c.15,2.26.22,4.58.22,6.95v29.98h-2.68v-40h4.32l14.17,35.18h.16l14.17-35.18h4.21v40h-2.82v-30.31c0-2.12.11-4.3.33-6.57h-.22l-14.96,36.88h-1.78Z"/>
    <path class="cls-1" d="M552.88,147.35h-21.86v-40h21.86v2.57h-19.07v15.13h18v2.57h-18v17.15h19.07v2.57Z"/>
    <path class="cls-1" d="M603.9,147.35h-2.82l-23.69-35.51h-.22c.22,4.23.33,7.42.33,9.58v25.93h-2.68v-40h2.79l23.66,35.46h.16c-.16-3.28-.25-6.4-.25-9.36v-26.1h2.71v40Z"/>
  </g>
  <path class="cls-1" d="M800.64,61.37c-12.15-5.62-26.87-3.42-37.49,5.6-3.42,2.91-7.28,6.73-11.4,10.99,1.5,1.56,6.95,7.31,8.18,8.59,3.98-4.13,7.77-7.91,10.89-10.55,7.12-6.05,16.87-7.57,24.85-3.88,7.15,3.31,11.26,9.94,11.26,18.2s-4.17,14.99-11.43,18.33c-6.48,2.99-13.82,2.62-20.11-.79-1.51-.82-2.96-1.81-4.32-2.98h0s0,0,0,0c-4.98-4.26-11.9-11.55-18.59-18.61-6.96-7.33-14.15-14.91-19.76-19.74-10.41-8.96-24.45-11.05-36.66-5.45-11.6,5.32-18.53,16.25-18.53,29.24,0,12.93,6.86,23.82,18.36,29.14,4.57,2.12,9.41,3.15,14.22,3.15,8.04,0,16.02-2.89,22.59-8.47h0c1.24-1.06,2.55-2.23,3.88-3.49,2.56-2.39,5.25-5.09,8-7.92-1.47-1.54-6.94-7.3-8.18-8.6-2.6,2.69-5.14,5.25-7.51,7.48-1.36,1.28-2.65,2.45-3.88,3.5h0c-6.95,5.9-16.2,7.28-24.16,3.6-7.3-3.38-11.49-10.08-11.48-18.38,0-8.23,4.35-15.14,11.62-18.47,7.95-3.65,17.14-2.24,24,3.66,5.16,4.44,12.15,11.8,18.9,18.92,7.22,7.61,14.04,14.8,19.49,19.46h0c1.34,1.15,2.75,2.18,4.22,3.1,5.72,3.61,12.28,5.48,18.83,5.48,4.79,0,9.58-1,14.04-3.06,11.48-5.28,18.33-16.16,18.33-29.09,0-12.88-6.78-23.71-18.14-28.95Z"/>
  <path class="cls-1" d="M881.33,180.59H0V0h881.33v180.59ZM6.51,174.09h868.32V6.51H6.51v167.58Z"/>
</svg>