<?xml version="1.0" encoding="UTF-8"?>
<svg id="Ebene_1" data-name="Ebene 1" xmlns="http://www.w3.org/2000/svg" viewBox="0 0 685.33 455.99">
  <defs>
    <style>
      .cls-1 {
        fill: #fff;
      }
    </style>
  </defs>
  <path class="cls-1" d="M528.75,289.31c-25.78,78.1-99.45,134.61-186.09,134.61s-160.3-56.51-186.09-134.61h-4.54c25.94,80.52,101.6,138.94,190.63,138.94s164.69-58.42,190.63-138.94h-4.54ZM342.67,27.75c-89.03,0-164.68,58.42-190.63,138.94h4.54c25.78-78.1,99.46-134.61,186.09-134.61s160.3,56.51,186.09,134.61h4.54c-25.95-80.52-101.6-138.94-190.63-138.94ZM551.7,298.93h57.74s-.57-114.21-.57-114.21h58.46l-31.44,61.31,31.44,61.31h-115.63v-8.41ZM133.63,307.35H18l31.44-61.31-31.44-61.31h58.46l-.57,114.21h57.74s0,8.41,0,8.41ZM232.72,359.25l-15.41-14.78,25.67-26.76,15.41,14.78-4.46,4.65-9.74-9.34-5.64,5.88,9.06,8.69-4.46,4.65-9.06-8.69-6.62,6.9,9.74,9.34-4.49,4.69ZM268.83,371.11c-1.76,2.85-4.17,4.46-7.23,4.83-3.06.37-6.42-.57-10.07-2.83-3.36-2.08-5.95-4.55-7.76-7.42l3.84-6.21c1.54,2.27,2.93,4.05,4.16,5.35,1.23,1.3,2.46,2.33,3.68,3.08,1.47.91,2.77,1.32,3.9,1.25,1.13-.08,2.04-.67,2.72-1.78.38-.62.55-1.28.5-1.97-.05-.69-.27-1.47-.66-2.33-.39-.86-1.32-2.41-2.77-4.66-1.37-2.1-2.28-3.86-2.72-5.29-.45-1.43-.62-2.88-.51-4.34.11-1.46.62-2.93,1.54-4.42,1.72-2.79,4.03-4.4,6.9-4.83,2.88-.43,5.99.39,9.32,2.45,1.64,1.01,3.08,2.17,4.33,3.48,1.25,1.31,2.47,2.82,3.66,4.53l-5.37,3.87c-1.26-1.73-2.35-3.07-3.28-4.03-.93-.95-1.93-1.76-2.99-2.42-1.27-.78-2.42-1.09-3.46-.91-1.04.17-1.85.73-2.44,1.68-.36.59-.55,1.19-.54,1.8,0,.61.17,1.3.52,2.08.34.78,1.3,2.39,2.87,4.83,2.08,3.23,3.22,5.89,3.44,7.98.22,2.09-.31,4.17-1.58,6.22ZM289.82,390.55l-7.42-2.6,10.1-28.81-9.5-3.33,2.16-6.17,26.42,9.27-2.17,6.18-9.5-3.33-10.1,28.81ZM310.6,392.19c.23-1.4.78-2.4,1.66-2.99.87-.59,2.02-.77,3.46-.53,1.38.23,2.39.77,3.03,1.64.64.86.84,1.97.61,3.34-.22,1.32-.78,2.29-1.67,2.92s-2.02.83-3.39.61c-1.4-.23-2.42-.79-3.07-1.66s-.85-1.98-.63-3.33ZM375.56,396.18l-25.75,2.97-.62-5.42,8.17-10.41c2.41-3.12,3.98-5.27,4.69-6.45.71-1.18,1.2-2.25,1.47-3.22.26-.97.34-1.94.22-2.93-.17-1.48-.7-2.53-1.6-3.16-.9-.63-2.03-.86-3.39-.71-1.43.16-2.78.65-4.04,1.46s-2.56,1.9-3.88,3.28l-4.81-4.53c1.64-1.75,3.01-3.02,4.13-3.8,1.12-.77,2.36-1.42,3.74-1.92,1.37-.51,2.93-.86,4.68-1.06,2.3-.26,4.38-.08,6.24.56,1.86.64,3.36,1.65,4.51,3.05,1.15,1.4,1.83,3.07,2.06,5.02.2,1.7.08,3.32-.34,4.88-.42,1.55-1.17,3.19-2.24,4.89-1.07,1.71-3.02,4.19-5.84,7.44l-4.22,5,.04.35,16.05-1.85.76,6.55ZM404.77,367.71c2.12,6.12,2.68,11,1.69,14.63s-3.57,6.17-7.74,7.62c-4.04,1.4-7.62.94-10.72-1.39-3.11-2.32-5.68-6.45-7.73-12.38-2.14-6.18-2.72-11.09-1.74-14.71.98-3.62,3.55-6.15,7.7-7.59,4.04-1.4,7.63-.92,10.76,1.43,3.13,2.35,5.72,6.48,7.77,12.39ZM387.63,373.64c1.49,4.3,2.92,7.25,4.31,8.85,1.39,1.6,2.96,2.1,4.72,1.49,1.73-.6,2.65-1.97,2.76-4.12.11-2.15-.56-5.35-2.03-9.6-1.49-4.3-2.94-7.25-4.37-8.86-1.43-1.61-2.99-2.12-4.7-1.53-1.74.6-2.66,1.97-2.76,4.11s.59,5.35,2.08,9.65ZM443.28,366.7l-22.07,13.58-2.86-4.64,3-12.89c.87-3.85,1.38-6.46,1.52-7.83.15-1.37.14-2.55-.03-3.54-.17-.99-.52-1.9-1.04-2.76-.78-1.27-1.71-2-2.79-2.18s-2.2.07-3.37.79c-1.22.75-2.24,1.77-3.04,3.04-.81,1.27-1.52,2.81-2.13,4.62l-6.27-2.07c.74-2.28,1.45-4.01,2.14-5.19.68-1.18,1.54-2.28,2.57-3.32,1.03-1.04,2.29-2.02,3.79-2.94,1.97-1.21,3.94-1.93,5.89-2.14,1.96-.21,3.75.08,5.38.86,1.63.78,2.96,2.01,3.99,3.68.9,1.46,1.48,2.98,1.75,4.56.27,1.59.28,3.38.04,5.38-.25,2-.97,5.07-2.15,9.21l-1.71,6.32.19.3,13.76-8.47,3.46,5.62ZM466.05,335.64l-3.21,3.1,5.34,5.53-5.51,5.32-5.34-5.53-11.38,10.99-3.79-3.92-4.94-28.51,5.2-5.02,16.19,16.77,3.21-3.1,4.23,4.38ZM453.11,339.68l-4.37-4.52c-.73-.75-1.75-1.88-3.08-3.37-1.32-1.49-2.08-2.37-2.27-2.64l-.15.14c.51,1.43.91,2.93,1.19,4.49l2.25,12.11,6.42-6.2ZM240.27,95.27c2.69,2.94,3.83,6.04,3.42,9.28-.41,3.24-2.32,6.42-5.71,9.52l-2.49,2.28,8.9,9.73-5.8,5.31-25.03-27.36,8.74-7.99c3.32-3.03,6.49-4.63,9.53-4.78s5.85,1.19,8.44,4.02ZM231.14,111.59l1.91-1.75c1.78-1.63,2.8-3.21,3.04-4.72.24-1.51-.25-2.95-1.49-4.29-1.24-1.36-2.53-2.02-3.87-2-1.34.03-2.8.77-4.38,2.22l-2.64,2.41,7.43,8.12ZM283.85,98.86l-6.56-6.49-11.89,6.42,1.83,9.04-7.45,4.03-6.18-38.98,8.46-4.57,29.25,26.51-7.45,4.03ZM272.51,87.46c-5.99-5.86-9.37-9.17-10.14-9.94-.77-.77-1.37-1.4-1.77-1.87.54,2.17,1.67,7.64,3.41,16.4l8.5-4.59ZM300.81,77.84l3.4,13.81-7.63,1.88-8.86-36,10.49-2.58c4.89-1.2,8.73-1.2,11.52,0,2.79,1.2,4.63,3.62,5.52,7.25.52,2.12.4,4.15-.36,6.08-.76,1.94-2.09,3.64-4,5.1,7.41,6.76,12.23,11.12,14.45,13.08l-8.47,2.09-11.99-11.7-4.06,1ZM299.28,71.63l2.46-.61c2.41-.59,4.1-1.43,5.05-2.52.95-1.09,1.21-2.49.79-4.22-.42-1.71-1.31-2.78-2.66-3.21-1.35-.43-3.26-.35-5.72.26l-2.31.57,2.39,9.73ZM346.12,86.39l-7.86.13-.49-30.53-10.07.16-.11-6.54,28-.45.11,6.54-10.07.16.49,30.53ZM393.64,94.87l-9.68-2.46-8.72-31.16-.22-.06c-.91,4.88-1.62,8.34-2.15,10.39l-4.3,16.91-6.81-1.73,9.14-35.93,9.61,2.44,8.76,30.88.17.04c.94-4.73,1.66-8.06,2.15-10l4.33-17.01,6.86,1.74-9.14,35.93ZM421.26,109.7l-18.67-10.36,17.99-32.42,18.67,10.36-3.13,5.63-11.8-6.55-3.95,7.12,10.98,6.09-3.13,5.63-10.98-6.09-4.64,8.36,11.8,6.55-3.15,5.68ZM443.8,109.44l-9.55,10.54-5.83-5.28,24.9-27.48,8.01,7.25c3.73,3.38,5.88,6.57,6.44,9.55s-.42,5.86-2.92,8.63c-1.47,1.62-3.21,2.65-5.24,3.1-2.03.45-4.18.3-6.46-.46-1.46,9.92-2.39,16.35-2.77,19.29l-6.46-5.86,3-16.49-3.1-2.81ZM448.09,104.7l1.88,1.7c1.84,1.67,3.48,2.59,4.91,2.77s2.75-.39,3.94-1.7c1.18-1.3,1.57-2.64,1.18-4-.4-1.36-1.53-2.9-3.41-4.6l-1.77-1.6-6.73,7.42ZM149.57,220.1c0,2.36-.7,4.2-2.11,5.54-1.4,1.34-3.3,2.01-5.68,2.01h-2.89v-13.49h4.1c4.39,0,6.59,1.98,6.59,5.94ZM210.36,219.42c0,4.9-2.77,7.35-8.31,7.35h-2.97v-13.41h3.13c5.43,0,8.15,2.02,8.15,6.06ZM86,166.69v122.62h513.34v-122.62H86ZM159.83,235.22c-3.87,3.57-9.36,5.36-16.48,5.36h-4.46v19.47h-15.86v-58.71h20.32c7.42,0,12.98,1.62,16.7,4.86,3.72,3.24,5.58,7.84,5.58,13.81,0,6.56-1.93,11.62-5.8,15.2ZM215.54,260.05l-12.45-21.36h-4.02v21.36h-15.86v-58.71h19.23c15.95,0,23.93,5.78,23.93,17.35,0,6.8-3.32,12.06-9.96,15.78l17.11,25.58h-17.99ZM281.94,214.08h-18.99v9.23h17.59v12.73h-17.59v11.08h18.99v12.93h-34.85v-58.71h34.85v12.73ZM367.3,260.05h-14.58v-25.74c0-1.34.02-2.82.06-4.46.04-1.63.22-5.63.54-12.01h-.36l-11.84,42.2h-15.1l-12.01-42.28h-.36c.56,7.2.84,12.8.84,16.78v25.5h-14.05v-58.71h21.12l12.25,41.68h.32l12.01-41.68h21.16v58.71ZM404.12,260.05h-15.94v-58.71h15.94v58.71ZM474.94,236.68c0,7.68-2.17,13.63-6.52,17.85-4.35,4.22-10.62,6.32-18.81,6.32s-14.15-2.05-18.45-6.14c-4.3-4.1-6.44-9.99-6.44-17.67v-35.7h15.94v34.45c0,4.15.77,7.16,2.33,9.03,1.55,1.88,3.84,2.81,6.87,2.81,3.24,0,5.59-.93,7.05-2.79,1.46-1.86,2.19-4.91,2.19-9.14v-34.37h15.86v35.34ZM562.35,260.05h-14.58v-25.74c0-1.34.02-2.82.06-4.46.04-1.63.22-5.63.54-12.01h-.36l-11.84,42.2h-15.1l-12.01-42.28h-.36c.56,7.2.84,12.8.84,16.78v25.5h-14.05v-58.71h21.12l12.25,41.68h.32l12.01-41.68h21.16v58.71Z"/>
</svg>